<svg xmlns="http://www.w3.org/2000/svg" viewBox="0 0 240 104"><defs><linearGradient id="body" x1="0" x2="1"><stop offset="0" stop-color="#edf7e7"/><stop offset="0.56" stop-color="#a4c085"/><stop offset="1" stop-color="#6c875c"/></linearGradient><filter id="soft" x="-20%" y="-30%" width="140%" height="160%"><feDropShadow dx="0" dy="6" stdDeviation="5" flood-color="#001522" flood-opacity="0.28"/></filter></defs><g filter="url(#soft)"><path d="M18 51C50 15 113 7 163 24c21 7 39 19 55 34-17 15-36 27-61 33C103 105 51 83 18 51Z" fill="url(#body)"/><path d="M170 29l56-27c-14 29-14 64 1 94l-57-30Z" fill="#6c875c" opacity=".96"/><path d="M48 55c34-7 82-6 135 6" fill="none" stroke="#6d7f55" stroke-width="6" stroke-linecap="round" opacity=".58"/><path d="M80 18c18-11 49-12 78-1" fill="none" stroke="#fff" stroke-width="6" opacity=".34" stroke-linecap="round"/><ellipse cx="48" cy="42" rx="7" ry="7" fill="#102338"/><circle cx="46" cy="40" r="2.2" fill="#fff"/><path d="M70 73c18 8 48 8 75 1" fill="none" stroke="#32462f" stroke-width="3" opacity=".22" stroke-linecap="round"/></g></svg>