<svg xmlns="http://www.w3.org/2000/svg" viewBox="0 0 360 180"><defs><linearGradient id="bg" x1="0" y1="0" x2="1" y2="1"><stop offset="0" stop-color="#eafcff"/><stop offset="1" stop-color="#cdefff"/></linearGradient><linearGradient id="body" x1="0" x2="1"><stop offset="0" stop-color="#f7fbff"/><stop offset="0.45" stop-color="#9ed7ff"/><stop offset="1" stop-color="#ff9359"/></linearGradient><filter id="soft" x="-20%" y="-30%" width="140%" height="160%"><feDropShadow dx="0" dy="8" stdDeviation="7" flood-color="#001522" flood-opacity="0.22"/></filter></defs><rect width="360" height="180" rx="32" fill="url(#bg)"/><g opacity=".32"><path d="M26 142c62-20 122-18 183 0s94 12 124-8" fill="none" stroke="#67bce1" stroke-width="8" stroke-linecap="round"/><circle cx="308" cy="48" r="28" fill="#fff"/></g><g filter="url(#soft)" transform="translate(50 48)"><path d="M14 46C49 16 128 7 188 28c22 8 40 19 57 31-20 13-44 22-72 26C111 94 50 77 14 46Z" fill="url(#body)"/><path d="M192 30l55-24c-13 26-13 55 1 80l-56-24Z" fill="#ff9359" opacity=".92"/><path d="M48 51c43-8 91-7 145 4" fill="none" stroke="#2f5b84" stroke-width="5" stroke-linecap="round" opacity=".52"/><path d="M88 20c24-9 66-9 96 3" fill="none" stroke="#fff" stroke-width="5" opacity=".36" stroke-linecap="round"/><ellipse cx="43" cy="39" rx="6" ry="6" fill="#102338"/><circle cx="41" cy="37" r="2" fill="#fff"/></g><text x="28" y="34" font-family="system-ui, Noto Sans KR, sans-serif" font-size="18" font-weight="900" fill="#10384a">피라미</text><text x="28" y="157" font-family="system-ui, Noto Sans KR, sans-serif" font-size="13" font-weight="800" fill="#215766">반짝이며 빠르게 움직이는 여울 친구</text></svg>